HIERARCHY
ROOT hip
{
	OFFSET 0.000000 0.000000 0.000000 
	CHANNELS 6 Xposition Yposition Zposition Xrotation Zrotation Yrotation
	JOINT abdomen
	{
		OFFSET 0.000000 3.402643 0.000000 
		CHANNELS 3 Xrotation Zrotation Yrotation
		JOINT chest
		{
			OFFSET 0.000000 8.438565 -0.680529 
			CHANNELS 3 Xrotation Zrotation Yrotation
			JOINT neck
			{
				OFFSET 0.000000 10.207942 -0.272212 
				CHANNELS 3 Xrotation Zrotation Yrotation
				JOINT head
				{
					OFFSET 0.000000 3.130431 0.000000 
					CHANNELS 3 Xrotation Zrotation Yrotation
					End Site
					{
						OFFSET 0.000000 3.130435 0.000000 
					}
				}
			}
			JOINT lCollar
			{
				OFFSET 3.470700 6.669187 -0.816635 
				CHANNELS 3 Yrotation Zrotation Xrotation
				JOINT lShldr
				{
					OFFSET 3.198488 0.000000 0.000000 
					CHANNELS 3 Zrotation Yrotation Xrotation
					JOINT lForeArm
					{
						OFFSET 10.139888 0.000000 0.000000 
						CHANNELS 3 Yrotation Zrotation Xrotation
						JOINT lHand
						{
							OFFSET 8.370511 0.000000 0.000000 
							CHANNELS 3 Zrotation Yrotation Xrotation
							End Site
							{
								OFFSET 4.083176 0.000000 0.000000 
							}
						}
					}
				}
			}
			JOINT rCollar
			{
				OFFSET -3.470700 6.669187 -0.816635 
				CHANNELS 3 Yrotation Zrotation Xrotation
				JOINT rShldr
				{
					OFFSET -3.198488 0.000000 0.000000 
					CHANNELS 3 Zrotation Yrotation Xrotation
					JOINT rForeArm
					{
						OFFSET -10.139888 0.000000 0.000000 
						CHANNELS 3 Yrotation Zrotation Xrotation
						JOINT rHand
						{
							OFFSET -8.370511 0.000000 0.000000 
							CHANNELS 3 Zrotation Yrotation Xrotation
							End Site
							{
								OFFSET -4.083176 0.000000 0.000000 
							}
						}
					}
				}
			}
		}
	}
	JOINT lThigh
	{
		OFFSET 5.308129 -1.633274 1.361059 
		CHANNELS 3 Xrotation Zrotation Yrotation
		JOINT lShin
		{
			OFFSET -2.041588 -20.007561 0.000000 
			CHANNELS 3 Xrotation Zrotation Yrotation
			JOINT lFoot
			{
				OFFSET 0.000000 -19.190928 -1.224953 
				CHANNELS 3 Xrotation Yrotation Zrotation
				End Site
				{
					OFFSET 0.000000 -2.449906 4.627600 
				}
			}
		}
	}
	JOINT rThigh
	{
		OFFSET -5.308129 -1.633274 1.361059 
		CHANNELS 3 Xrotation Zrotation Yrotation
		JOINT rShin
		{
			OFFSET 2.041588 -20.007561 0.000000 
			CHANNELS 3 Xrotation Zrotation Yrotation
			JOINT rFoot
			{
				OFFSET 0.000000 -19.190928 -1.224953 
				CHANNELS 3 Xrotation Yrotation Zrotation
				End Site
				{
					OFFSET 0.000000 -2.449906 4.627600 
				}
			}
		}
	}
}
MOTION
Frames: 18
Frame Time: 0.033333
-1.326368 49.936890 1.675326 1.409381 -0.230546 -10.371205 0.000000 0.000000 0.000000 -1.529274 -0.204995 1.630849 1.376857 -0.019531 0.283203 10.896226 1.503340 -1.572749 -1.005880 -3.139074 -0.889882 -45.373146 25.573563 -16.443165 -39.352112 0.610010 13.919656 -2.889401 1.551076 -3.420636 6.363873 3.819163 -0.963320 25.946121 -19.949680 5.280350 32.760654 3.492534 20.291069 -2.037570 1.479829 -3.529881 8.424144 13.346628 12.560400 4.650303 -3.021855 7.580701 -4.429911 0.203295 -5.213380 4.137672 -8.637390 -7.626594 0.585306 2.825094 -4.613270 -3.688601 -0.161104 3.781562 
-1.733539 49.924667 1.485244 1.447969 -0.258597 -11.259915 0.000000 0.000000 0.000000 -1.265462 -0.204999 1.591787 0.742604 0.244140 0.097697 11.197894 1.532619 -1.582510 -1.401895 -4.465787 -0.694857 -50.504246 25.647684 -16.739227 -40.843735 0.763715 16.888994 -6.198628 1.659304 -3.380327 6.835918 5.965128 -0.838568 27.843664 -20.210264 7.637118 34.650257 4.865780 18.827446 -1.144992 1.456792 -3.485549 8.689093 13.835690 12.985303 4.389437 -3.044084 7.587690 -3.836424 0.238758 -5.718113 3.630749 -8.228475 -7.245698 0.994537 2.882725 -3.875032 -3.507800 -0.135069 3.695215 
-2.217196 49.897469 1.286848 1.440474 -0.381694 -12.275700 0.000000 0.000000 0.000000 -1.082711 0.048812 1.494148 0.410805 0.146483 0.253930 11.295979 1.893827 -1.563260 -2.117850 -5.770367 -0.568071 -54.662796 26.412867 -14.971933 -42.840523 -0.048073 14.328292 -5.863804 2.957163 -3.468965 7.256395 6.801352 -0.742699 32.740879 -20.779345 6.986348 37.001228 4.265656 25.566418 0.314229 -0.343000 -3.458943 8.747100 14.547626 13.563098 4.846191 -3.120518 7.633567 -3.549669 0.197606 -6.110604 3.279711 -7.596330 -6.748858 1.120212 2.949162 -2.998515 -3.564610 -0.122251 3.056516 
-2.744153 49.845619 1.100064 1.454425 -0.617788 -13.282043 0.000000 0.000000 0.000000 -0.881722 0.283118 1.406281 0.099544 0.410152 0.263735 11.263692 1.815851 -1.416542 -2.483890 -5.910111 -0.411622 -59.811310 26.332479 -14.099308 -44.812538 -0.173321 16.436457 -4.515109 3.588914 -3.508371 7.790616 8.528373 -0.704949 35.255405 -21.683537 9.669804 39.895252 5.009947 26.225481 -0.551765 -0.738107 -3.488947 8.382507 15.540319 14.084438 6.284791 -3.055184 7.218864 -3.504960 0.224117 -6.869895 3.014967 -6.889209 -6.308252 1.296663 3.157794 -2.197701 -3.604840 -0.098354 2.517181 
-3.326723 49.804970 0.877692 1.595724 -0.634388 -14.170875 0.000000 0.000000 0.000000 -0.829127 0.458859 1.338004 -0.103986 0.468737 0.419988 10.956400 1.776901 -1.279893 -2.538052 -6.009510 -0.362062 -64.817192 25.578632 -14.134388 -47.099884 0.048478 17.991493 -3.881747 4.728980 -3.567325 8.023258 9.438211 -0.745901 39.303555 -22.890924 9.263114 42.527725 4.657652 23.546553 0.465565 0.067097 -3.437063 6.737797 16.679792 14.291715 9.539515 -2.918747 6.565117 -3.549656 0.247065 -7.579649 2.586962 -6.347673 -5.957394 1.433438 3.399583 -1.291838 -3.500638 -0.094057 2.095513 
-3.951534 49.756142 0.619520 2.012583 -0.037588 -15.791027 0.000000 0.000000 0.000000 -1.078060 0.195223 1.738304 -0.423163 0.390571 0.957076 10.714394 1.552486 -1.025543 -2.020992 -6.493016 -0.598152 -68.440903 24.717527 -13.229560 -49.575039 -0.098808 17.908255 -2.271392 5.820565 -3.583480 8.513019 9.992178 -0.991382 42.357986 -23.759413 11.249070 45.301403 4.849360 25.249231 -1.947846 -1.725298 -3.516355 4.742328 17.337898 14.219436 13.045619 -2.917343 6.600808 -3.605182 0.288509 -7.679968 1.190274 -6.217136 -5.620756 2.506598 3.490789 0.128208 -3.797727 -0.043364 1.854097 
-4.572710 49.695133 0.543352 1.022056 -1.031657 -16.184395 0.000000 0.000000 0.000000 -0.123461 1.015364 1.299143 0.177208 0.800703 0.800976 10.059833 1.308466 -0.800795 -2.390392 -6.145112 0.295210 -71.190102 23.280828 -11.203900 -51.237354 -0.739948 15.507218 -2.457411 5.995443 -3.589632 8.269483 11.394952 -0.286330 44.503609 -24.538406 12.523259 47.786114 4.964562 25.270216 -3.436491 -2.152992 -3.527908 3.326288 19.045170 14.297317 18.090643 -1.826652 5.081477 -3.635211 0.285909 -8.558678 2.027839 -5.149805 -5.489666 3.568384 4.044955 0.891202 -4.470230 -0.024715 0.901229 
-5.195590 49.677715 0.362642 1.030593 -0.887921 -16.847857 0.000000 0.000000 0.000000 -0.157777 1.015465 1.015812 0.327681 0.937377 0.927930 10.297470 1.728450 -0.498115 -2.873507 -5.629006 0.274647 -72.884789 22.427456 -7.822043 -52.816208 -1.405516 16.816467 -1.460878 6.270272 -3.576455 7.998929 11.868057 -0.337867 47.385654 -25.357939 13.430173 49.203896 4.946404 25.938595 -4.673610 -2.840539 -3.517167 -0.205963 19.822744 13.096982 23.939928 -0.685229 4.350537 -2.910828 0.242957 -8.283283 1.305593 -4.932658 -5.627820 4.957028 4.575161 1.942070 -4.979270 0.049617 0.169998 
-5.767572 49.610981 0.199346 0.716604 -0.726696 -17.442932 0.000000 0.000000 0.000000 0.109522 1.054621 0.644782 0.571772 0.986212 0.879112 10.598642 2.001941 -0.195193 -3.389139 -5.362847 0.518962 -73.009323 21.159491 -3.483314 -54.750599 -2.083110 20.294992 -0.125772 6.136762 -3.537143 7.426540 12.012658 -0.070368 50.167080 -25.948702 13.927578 50.508205 4.967754 25.881998 -5.517172 -3.544256 -3.508206 -4.325876 20.052011 11.164314 30.707218 0.994699 4.122353 -1.737287 0.110621 -7.287395 1.208119 -4.864634 -5.881026 6.020274 5.082584 3.786846 -5.979534 0.086747 -0.878192 
-6.364429 49.637173 -0.061421 0.832203 -0.814000 -18.703238 0.000000 0.000000 0.000000 0.237288 1.328064 0.547181 0.858673 0.986148 1.093924 11.054688 2.490234 0.000424 -3.388216 -5.185491 0.656639 -71.986977 19.536381 1.316917 -56.446346 -2.471178 27.295824 1.305982 7.058718 -3.513943 7.413769 11.821449 0.037914 53.226238 -26.414597 14.245575 50.672859 5.304773 23.442270 -7.023468 -3.537024 -3.494681 -8.466290 20.095703 9.543817 35.662670 2.479466 9.867144 2.320396 -0.115699 -7.502595 0.214469 -4.276994 -5.483198 7.712321 5.309988 5.992055 -6.400801 0.153362 -2.364737 
-6.801512 49.667038 -0.273227 0.562952 -0.854009 -19.894932 0.000000 0.000000 0.000000 0.710301 1.552642 0.625300 1.246670 1.171587 1.269865 11.507611 2.714841 0.078500 -3.592407 -4.708056 1.095880 -69.833725 17.029100 6.927753 -57.244640 -3.204371 32.452309 1.825578 7.630084 -3.486863 7.620590 12.337243 0.394889 55.161030 -27.032520 13.387809 51.177299 4.928197 25.079430 -5.385730 -4.220649 -3.478226 -12.644590 19.029314 7.350926 40.896690 4.112470 15.693521 6.006813 -0.302002 -5.503197 0.292265 -3.892531 -5.267604 7.853670 5.405082 7.441108 -6.263047 0.176090 -2.588382 
-7.263963 49.740452 -0.333980 -0.151664 -1.123668 -20.697626 0.000000 0.000000 0.000000 1.430321 1.747988 0.469128 1.697774 1.396207 1.142953 12.173558 2.978511 0.107784 -3.498578 -3.714972 1.797240 -68.431694 13.978547 11.770782 -57.105434 -3.991861 35.576878 3.344570 8.385435 -3.422871 7.448154 12.925342 1.022088 56.212795 -27.328421 13.365349 51.327892 4.993635 24.352530 -4.654209 -4.504881 -3.474268 -15.693600 17.959131 6.027222 44.606365 5.143130 19.915712 9.281394 -0.169683 -2.247784 2.157360 -3.407718 -5.102267 5.815144 5.503313 8.403152 -6.355226 0.167711 -2.838140 
-7.565342 49.739841 -0.444393 -0.444746 -0.788271 -21.906553 0.000000 0.000000 0.000000 1.823703 1.787028 0.547218 1.911151 1.181346 1.279629 12.767579 3.271482 0.068805 -3.384669 -3.801955 2.159253 -66.700287 11.685459 14.206787 -57.659752 -4.501753 34.844452 3.379506 5.948487 -3.454272 7.649427 12.924381 1.348030 56.574268 -27.227343 14.122104 51.087402 5.329183 23.502850 -3.931584 -5.554297 -3.459626 -18.043613 16.510208 5.314553 46.780060 4.822587 18.991724 6.921519 0.054740 0.405052 2.010521 -3.582614 -5.093114 6.476455 5.434263 10.210939 -6.846931 0.194624 -3.054445 
-7.837525 49.762203 -0.459342 -1.066061 -0.486510 -22.696192 0.000000 0.000000 0.000000 2.396398 1.660101 0.469119 2.317363 1.044681 1.230798 12.766672 3.515624 0.049335 -3.461452 -3.740403 2.686161 -65.922905 9.573428 14.788806 -57.826683 -4.642764 33.437469 1.027804 4.407924 -3.504457 7.161051 12.794529 1.944091 56.186577 -26.652233 15.223361 50.739681 5.664967 23.968828 -3.414531 -5.549696 -3.468848 -19.477879 14.673871 4.490514 48.145779 4.238729 13.412876 3.812183 0.047746 0.521711 2.164106 -3.724890 -5.197952 7.077520 5.300276 10.401541 -6.791855 0.189264 -2.981620 
-8.112123 49.755669 -0.409386 -1.130124 -0.295040 -23.721073 0.000000 0.000000 0.000000 2.466202 1.728450 0.498409 2.419259 1.142267 1.338209 13.175427 3.330059 0.196117 -3.567289 -3.700300 2.744199 -65.458618 8.523438 14.261561 -57.744469 -4.752781 30.573265 -0.101466 4.210658 -3.503567 7.061844 12.568196 2.031725 55.786934 -26.701298 16.072338 50.778786 5.822065 24.890112 -3.313551 -5.739491 -3.475512 -20.894043 13.121860 4.151726 47.578476 3.367139 11.630348 3.521530 0.036151 0.394447 1.823506 -3.404057 -4.623208 7.664848 4.822878 10.398927 -6.863110 0.201416 -2.966087 
-8.368635 49.745193 -0.285214 -1.226328 0.142443 -24.267641 0.000000 0.000000 0.000000 2.458897 1.562481 0.283364 2.560665 1.005627 1.230793 12.788061 3.427703 0.244872 -3.669684 -3.616551 2.734164 -65.448097 7.846155 13.285892 -57.750835 -4.760713 27.677238 -0.068100 5.064010 -3.526543 6.717779 12.442659 2.063699 55.135128 -26.769142 16.364532 50.611774 5.926996 24.981312 -3.861808 -5.716680 -3.463752 -22.067492 11.082411 3.925087 45.820179 2.306097 12.261574 3.616247 0.042310 0.551222 1.599728 -3.532400 -4.553679 8.316175 4.636264 10.664711 -7.126832 0.211954 -3.016989 
-8.552097 49.695332 -0.159453 -1.010929 0.221477 -24.882990 0.000000 0.000000 0.000000 2.405086 1.787107 0.088152 2.525338 1.152065 1.260100 12.796054 3.398362 0.381926 -3.817234 -3.416914 2.713651 -65.365570 7.715220 12.075147 -57.852612 -4.854140 23.584412 0.495892 4.795532 -3.510659 6.693678 12.433324 1.993355 54.249134 -26.896572 16.227531 50.543320 5.921603 23.961237 -3.804214 -5.693695 -3.471001 -23.007618 9.609590 4.015786 43.204803 0.991168 13.165302 2.369938 0.052261 1.334711 1.493954 -3.427751 -4.451072 8.537436 4.625497 11.314592 -7.638437 0.258267 -3.257204 
-8.781922 49.626083 -0.027803 -0.596056 0.387393 -25.635391 0.000000 0.000000 0.000000 2.239918 1.914059 0.107688 2.391386 1.230148 1.308921 12.516318 2.997933 0.498897 -3.800408 -3.093866 2.575884 -65.470741 7.561063 11.413004 -57.655430 -4.757352 23.166353 1.587926 5.891687 -3.491127 6.582201 12.616877 1.845463 52.722946 -26.884354 16.926512 50.721348 6.108920 24.219233 -4.551518 -5.762799 -3.452554 -23.745731 8.464992 4.276909 40.198032 -0.563637 13.661426 0.833898 0.038830 2.139189 0.946296 -3.230961 -4.133754 9.126597 4.490231 11.945873 -8.022673 0.260658 -3.409701 
